<svg width="83" height="50" viewBox="0 0 83 50" fill="none" xmlns="http://www.w3.org/2000/svg">
<g id="Group">
<g id="Group_2">
<g id="Group_3">
<path id="Vector" d="M55.8093 32.3998C53.7796 32.3998 52.4033 32.871 52.4033 34.2669C52.4033 35.1568 53.0915 35.6104 53.9343 35.6104C55.4653 35.6104 56.3598 34.2494 56.3598 32.8185V32.5918C56.3598 32.4521 56.2738 32.3998 55.8093 32.3998Z" fill="#00B39E"/>
</g>
</g>
<g id="Group_4">
<g id="Group_5">
<path id="Vector_2" d="M57.7188 36.6051C56.4459 36.6051 56.5662 35.2266 56.2566 35.2266C56.0157 35.2266 55.2761 36.6051 53.4183 36.6051C52.1108 36.6051 50.8895 35.8198 50.8895 34.3715C50.8895 33.0977 51.9904 31.7193 55.6201 31.7193C55.861 31.7193 56.1189 31.7368 56.3597 31.7368V30.5851C56.3597 29.1193 55.4996 28.5785 54.2267 28.5785C53.3665 28.5785 52.9537 28.7529 52.9537 29.1019C52.9537 29.3811 53.2462 29.3985 53.2462 29.9046C53.2462 30.463 52.7645 30.7073 52.3173 30.7073C51.7152 30.7073 51.4399 30.2361 51.4399 29.7126C51.4399 28.5262 52.7473 27.898 54.4847 27.898C56.4459 27.898 57.6672 28.7355 57.6672 30.7422V34.1099C57.6672 35.3139 57.7532 35.6104 58.166 35.6104C58.51 35.6104 58.5789 35.244 58.8368 35.244C58.9917 35.244 59.0605 35.3314 59.0605 35.5232C59.0605 35.907 58.3209 36.6051 57.7188 36.6051ZM50.6487 36.3434H46.5547V35.6629C47.3287 35.6629 47.9481 35.6629 47.9481 34.8602V31.1086C47.9481 29.6428 47.2943 28.9972 46.2966 28.9972C44.5248 28.9972 44.0432 31.1784 44.0432 31.8065V34.6856C44.0432 35.6629 44.6625 35.6629 45.4021 35.6629V36.3434H41.3768V35.6629C41.9101 35.6629 42.7357 35.6629 42.7357 34.8602V31.1086C42.7357 29.6428 42.0821 28.9972 41.0844 28.9972C39.3125 28.9972 38.831 31.004 38.831 31.9811V34.6856C38.831 35.6629 39.5018 35.6629 40.2243 35.6629V36.3434H36.0613V35.6629C36.7495 35.6629 37.5235 35.6629 37.5235 34.8602V29.7825C37.5235 28.8752 36.8011 28.8752 36.0441 28.8752V28.1771C37.6096 28.1771 38.3664 27.898 38.5729 27.898C38.7277 27.898 38.7449 28.0375 38.7449 28.2993V29.5208C38.7449 29.6603 38.7449 29.7825 38.8138 29.7825C39.0373 29.7825 39.4502 27.898 41.5661 27.898C42.4089 27.898 42.925 28.2644 43.1659 28.5262C43.8539 29.259 43.7164 29.922 43.8883 29.922C44.0776 29.922 44.6969 27.898 46.744 27.898C48.275 27.898 49.2555 28.7355 49.2555 31.126V34.6856C49.2555 35.6629 49.9091 35.6629 50.6487 35.6629V36.3434ZM35.5283 36.3434H31.4341V35.6629C32.2083 35.6629 32.8275 35.6629 32.8275 34.8602V31.1086C32.8275 29.6428 32.1739 28.9972 31.176 28.9972C29.4042 28.9972 28.9226 31.1784 28.9226 31.8065V34.6856C28.9226 35.6629 29.5419 35.6629 30.2815 35.6629V36.3434H26.2562V35.6629C26.7895 35.6629 27.6153 35.6629 27.6153 34.8602V31.1086C27.6153 29.6428 26.9615 28.9972 25.9638 28.9972C24.1919 28.9972 23.7104 31.004 23.7104 31.9811V34.6856C23.7104 35.6629 24.3812 35.6629 25.1037 35.6629V36.3434H20.9408V35.6629C21.6289 35.6629 22.403 35.6629 22.403 34.8602V29.7825C22.403 28.8752 21.6805 28.8752 20.9236 28.8752V28.1771C22.489 28.1771 23.2458 27.898 23.4523 27.898C23.6071 27.898 23.6244 28.0375 23.6244 28.2993V29.5208C23.6244 29.6603 23.6244 29.7825 23.6932 29.7825C23.9167 29.7825 24.3296 27.898 26.4455 27.898C27.2885 27.898 27.8044 28.2644 28.0453 28.5262C28.7333 29.259 28.5958 29.922 28.7677 29.922C28.957 29.922 29.5763 27.898 31.6234 27.898C33.1544 27.898 34.1348 28.7355 34.1348 31.126V34.6856C34.1348 35.6629 34.7885 35.6629 35.5283 35.6629V36.3434ZM17.6896 35.8198C18.8765 35.8198 19.7023 35.244 20.3044 34.6682L20.7172 35.2091C19.9086 36.1165 18.7388 36.6051 17.5348 36.6051C15.0576 36.6051 13.5094 34.7555 13.5094 32.1904C13.5094 29.7825 14.9888 27.898 17.4659 27.898C20.0291 27.898 20.8893 29.8523 20.8893 32.2603H15.1265C15.1265 34.232 16.107 35.8198 17.6896 35.8198ZM58.1595 15.0848C58.1595 10.8457 59.1914 6.93011 60.9367 3.76511C53.0103 1.0958 42.4252 0.932408 31.4709 3.90923C15.7399 8.18414 3.86453 17.6816 0.784606 27.336C1.739 25.4834 3.56696 24.1463 6.00951 24.1463C8.07365 24.1463 9.10588 25.0711 9.62184 25.0711C10.1551 25.0711 10.4304 24.6524 10.5336 24.1463H11.2905C11.2561 24.8618 11.2389 25.5598 11.2389 26.2751C11.2389 26.9907 11.2561 27.6886 11.2905 28.404H10.4992C9.8455 26.3275 8.38329 24.9839 6.18145 24.9839C4.5301 24.9839 1.84654 26.1007 1.84654 30.3059C1.84654 33.4643 3.46349 35.7675 6.47389 35.7675C8.15977 35.7675 9.63903 35.0347 9.63903 33.0454C9.63903 31.9811 9.22623 31.7542 8.15977 31.7542H7.67805V30.9689H12.9247V31.7542C11.3593 31.7542 11.1528 32.0509 11.1528 32.9931V36.6051H10.4648C10.3788 36.099 10.2928 35.6454 9.77673 35.6454C9.26062 35.6454 8.43487 36.6051 6.09548 36.6051C2.58933 36.6051 0.250547 34.3036 0.0550823 30.91C-0.0842767 32.5222 0.0383411 34.1212 0.450989 35.6832C3.62985 47.7121 22.6715 52.9886 42.9825 47.469C53.5959 44.5848 62.4556 39.3232 68.0427 33.2402C62.3109 30.7881 58.1595 23.5869 58.1595 15.0848Z" fill="#00B39E"/>
</g>
</g>
<g id="Group_6">
<g id="Group_7">
<path id="Vector_3" d="M17.4383 28.5799C15.8203 28.5851 15.1783 30.1905 15.1222 31.5848L19.0641 31.572C19.305 31.5712 19.3743 31.4839 19.3754 31.1527C19.3791 29.9851 18.7638 28.5755 17.4383 28.5799Z" fill="#00B39E"/>
</g>
</g>
<g id="Group_8">
<g id="Group_9">
<path id="Vector_4" d="M72.3606 31.0881L74.5946 27.5489L76.1509 30.2468C76.1575 30.2581 76.1646 30.2692 76.1722 30.2796L75.8918 30.3948L75.3834 30.5689L74.8558 30.7228L74.3131 30.8508L73.7435 30.9533L73.1532 31.0274L72.547 31.0814L72.3606 31.0881ZM71.4686 31.0881L71.283 31.0814L70.6761 31.0274L70.0864 30.9533L69.5161 30.8508L68.971 30.7228L68.4459 30.5689L67.9375 30.3948L67.7348 30.3115L69.2433 27.5618L71.4686 31.0881ZM71.9146 30.4134L69.7289 26.9498L71.9122 25.5659L74.0993 26.9524L71.9146 30.4134ZM67.063 30.0088L66.9825 29.9702L66.5359 29.7284L66.103 29.4657L65.6961 29.1811L65.3029 28.8765L64.9263 28.5542L64.5728 28.215L64.2352 27.8563L63.9125 27.4799L63.8404 27.387L68.5852 27.2296L67.0802 29.9731C67.0739 29.9849 67.0681 29.9967 67.063 30.0088ZM76.8266 29.9799C76.8186 29.9424 76.8047 29.9055 76.7846 29.8706L75.2615 27.2305L79.9881 27.3886L79.9174 27.4799L79.594 27.8563L79.2572 28.215L78.9004 28.5542L78.5269 28.8765L78.1337 29.1811L77.7262 29.4657L77.2934 29.7284L76.8468 29.9702L76.8266 29.9799ZM79.8226 26.6379L75.1345 26.4811L76.0456 24.0504L79.3344 22.8802L79.8226 26.6379ZM63.9604 26.6379L64.4829 22.8788L67.7851 24.0533L68.6953 26.4808L63.9604 26.6379ZM80.5591 26.6059L80.1056 23.1161L81.6678 24.1166C81.7123 24.1451 81.7604 24.1627 81.8093 24.1702L81.6922 24.4659L81.4842 24.9301L81.2655 25.3918L81.0297 25.8359L80.7739 26.2695L80.5591 26.6059ZM63.2318 26.5459L63.0554 26.2695L62.8003 25.8359L62.5643 25.3918L62.342 24.9301L62.137 24.4659L62.0194 24.169C62.0657 24.1609 62.1112 24.1437 62.1533 24.1166L63.7078 23.1212L63.2318 26.5459ZM74.4243 26.2802L72.7545 25.2217L75.1392 24.3731L74.4243 26.2802ZM69.4045 26.2773L68.6916 24.3758L71.0697 25.2217L69.4045 26.2773ZM71.9121 24.7321L68.3501 23.4651L66.1914 17.7077L68.1328 12.0833L71.9606 7.71294L75.637 11.9101L77.6383 17.7073L75.4806 23.4623L71.9121 24.7321ZM82.0592 23.4866L80.2617 22.3354L82.8353 20.1583L82.8015 20.3858L82.7148 20.9215L82.6082 21.4486L82.4931 21.9725L82.3637 22.4883L82.215 22.9928L82.0592 23.4866ZM61.7692 23.4821L61.6119 22.9928L61.4657 22.4883L61.3369 21.9725L61.2185 21.4486L61.1144 20.9215L61.0279 20.3858L60.9957 20.1665L63.5594 22.3354L61.7692 23.4821ZM67.4437 23.1427L64.6574 22.1517L65.8148 18.7985L67.4437 23.1427ZM76.3871 23.1397L78.0147 18.7981L79.1715 22.1489L76.3871 23.1397ZM64.0172 21.7528L61.5164 19.6372L64.7465 15.9493L65.4098 17.7183L64.0172 21.7528ZM79.8107 21.7472L78.4198 17.7177L79.1105 15.8754L82.3628 19.5882L79.8107 21.7472ZM60.8985 19.2214L60.8959 19.1889L60.8786 18.873L60.865 18.5482L60.8618 18.2202V17.8867L60.873 17.5449L60.8872 17.2001L60.9071 16.8502L60.938 16.4965L60.9745 16.1378L61.0191 15.7784L61.0724 15.4109L61.1344 15.0435L61.2018 14.6729L61.2805 14.2996L61.3678 13.9265L61.4631 13.5477L61.5642 13.1715L61.6793 12.7901L61.8032 12.4081L61.932 12.0319L62.0726 11.6499L62.2243 11.2687L62.3841 10.8892L62.5587 10.5105L62.7407 10.1284L62.9321 9.75531L63.1371 9.38218L63.3508 9.00904L63.6289 8.54473L63.9069 8.09754L64.1794 7.66153L64.4488 7.24571L64.7239 6.838L64.9907 6.44789L65.2608 6.0746L65.5246 5.70651L65.7916 5.35663L66.0554 5.01425L66.3223 4.69267L66.5837 4.37354L66.8449 4.07139L67.1088 3.78041L67.3701 3.49845L67.6314 3.22522L67.8954 2.96315L68.1536 2.71256L68.418 2.47008L68.6818 2.23386L68.9431 2.00836L69.2071 1.79219L69.4709 1.58122L69.7378 1.38203L70.0046 1.18789L70.2716 1.00263L70.5409 0.820419L70.8111 0.647085L71.086 0.475587L71.3585 0.31342L71.6365 0.153855L71.9146 -4.95911e-05L72.1927 0.153855L72.4683 0.31342L72.7432 0.475587L73.0158 0.647085L73.2883 0.820419L73.5577 1.00263L73.8246 1.18789L74.0914 1.38203L74.3584 1.58122L74.6222 1.79219L74.8835 2.00836L75.1475 2.23386L75.4119 2.47008L75.6757 2.71256L75.9339 2.96315L76.1984 3.22522L76.4566 3.49845L76.7205 3.78041L76.9849 4.07139L77.2431 4.37354L77.5069 4.69267L77.7739 5.01425L78.0377 5.35663L78.3046 5.70651L78.5692 6.0746L78.8385 6.44789L79.1055 6.838L79.3779 7.24571L79.6504 7.66153L79.9229 8.09754L80.2009 8.54473L80.479 9.00904L80.6921 9.38218L80.8945 9.75531L81.0885 10.1284L81.2711 10.5105L81.442 10.8892L81.6049 11.2687L81.7566 11.6499L81.8972 12.0319L82.0267 12.4081L82.15 12.7901L82.2652 13.1715L82.3661 13.5477L82.462 13.9265L82.5487 14.2996L82.6275 14.6729L82.6925 15.0435L82.7569 15.4109L82.8101 15.7784L82.8554 16.1378L82.8888 16.4965L82.9222 16.8502L82.9421 17.2001L82.9563 17.5449L82.9674 17.8867V18.2202L82.965 18.5482L82.9507 18.873L82.9351 19.1204L79.3733 15.0542L80.3995 8.87625L80.2009 8.54473L79.9229 8.09754L79.7671 7.84818L74.3367 5.00017L76.0064 3.09365C76.0158 3.08309 76.0244 3.07208 76.0323 3.06061L75.9339 2.96315L75.6757 2.71256L75.5039 2.55468C75.4874 2.56783 75.472 2.58267 75.4576 2.59904L73.8388 4.44728L72.3977 0.272573L72.1927 0.153855L71.9146 -4.95911e-05L71.6365 0.153855L71.432 0.271196L70.0164 4.37231L68.405 2.5328C68.3967 2.52332 68.388 2.51429 68.3789 2.50587L68.1536 2.71256L67.8954 2.96315L67.8445 3.01364C67.8483 3.01823 67.8522 3.02297 67.8562 3.02741L69.5579 4.97019L64.0627 7.84833L63.9069 8.09754L63.6289 8.54473L63.4299 8.87701L64.4707 15.143L60.8985 19.2214ZM65.7863 16.6275L65.2966 15.3213L66.8488 13.5491L65.7863 16.6275ZM78.0432 16.6269L76.921 13.3757L78.5604 15.2474L78.0432 16.6269ZM65.0966 14.4284L64.1363 8.64784L69.5126 5.83212L67.4877 11.6984L65.0966 14.4284ZM78.7474 14.3397L76.2821 11.5254L74.3152 5.82737L79.6929 8.64769L78.7474 14.3397ZM68.7715 10.2326L70.2968 5.81376L71.4694 7.15239L68.7715 10.2326ZM74.9983 10.0596L72.4515 7.15239L73.5584 5.88857L74.9983 10.0596ZM71.9605 6.5917L70.5744 5.00935L71.9146 1.12685L73.2808 5.08432L71.9605 6.5917Z" fill="#00B39E"/>
</g>
</g>
</g>
</svg>
