<svg width="169" height="87" viewBox="0 0 169 87" fill="none" xmlns="http://www.w3.org/2000/svg">
<g id="Group">
<g id="Group_2">
<g id="Group_3">
<path id="Vector" d="M113.636 55.2192C109.503 55.2192 106.701 56.0223 106.701 58.4013C106.701 59.918 108.102 60.6911 109.818 60.6911C112.936 60.6911 114.757 58.3715 114.757 55.9329V55.5465C114.757 55.3084 114.582 55.2192 113.636 55.2192Z" fill="white"/>
</g>
</g>
<g id="Group_4">
<g id="Group_5">
<path id="Vector_2" d="M117.525 62.3864C114.933 62.3864 115.178 60.0369 114.548 60.0369C114.057 60.0369 112.551 62.3864 108.768 62.3864C106.106 62.3864 103.619 61.0481 103.619 58.5797C103.619 56.4088 105.861 54.0596 113.252 54.0596C113.742 54.0596 114.267 54.0893 114.758 54.0893V52.1265C114.758 49.6283 113.006 48.7066 110.414 48.7066C108.663 48.7066 107.822 49.0039 107.822 49.5986C107.822 50.0745 108.418 50.1042 108.418 50.9667C108.418 51.9184 107.437 52.3348 106.527 52.3348C105.301 52.3348 104.74 51.5317 104.74 50.6395C104.74 48.6175 107.402 47.5469 110.94 47.5469C114.933 47.5469 117.42 48.9741 117.42 52.3942V58.1338C117.42 60.1858 117.595 60.6911 118.435 60.6911C119.136 60.6911 119.276 60.0667 119.801 60.0667C120.117 60.0667 120.257 60.2155 120.257 60.5425C120.257 61.1967 118.751 62.3864 117.525 62.3864ZM103.129 61.9403H94.7931V60.7806C96.3691 60.7806 97.6303 60.7806 97.6303 59.4125V53.0187C97.6303 50.5206 96.2991 49.4203 94.2676 49.4203C90.6599 49.4203 89.6793 53.1376 89.6793 54.2082V59.115C89.6793 60.7806 90.9403 60.7806 92.4462 60.7806V61.9403H84.2502V60.7806C85.3361 60.7806 87.0171 60.7806 87.0171 59.4125V53.0187C87.0171 50.5206 85.6862 49.4203 83.6548 49.4203C80.047 49.4203 79.0665 52.8403 79.0665 54.5057V59.115C79.0665 60.7806 80.4324 60.7806 81.9034 60.7806V61.9403H73.427V60.7806C74.8283 60.7806 76.4043 60.7806 76.4043 59.4125V50.7586C76.4043 49.2122 74.9333 49.2122 73.392 49.2122V48.0225C76.5796 48.0225 78.1206 47.5469 78.541 47.5469C78.8561 47.5469 78.8911 47.7847 78.8911 48.2308V50.3125C78.8911 50.5503 78.8911 50.7586 79.0315 50.7586C79.4866 50.7586 80.3274 47.5469 84.6356 47.5469C86.3517 47.5469 87.4025 48.1713 87.893 48.6175C89.2939 49.8664 89.0139 50.9964 89.3639 50.9964C89.7494 50.9964 91.0103 47.5469 95.1785 47.5469C98.2958 47.5469 100.292 48.9741 100.292 53.0484V59.115C100.292 60.7806 101.623 60.7806 103.129 60.7806V61.9403ZM72.3417 61.9403H64.0053V60.7806C65.5816 60.7806 66.8426 60.7806 66.8426 59.4125V53.0187C66.8426 50.5206 65.5116 49.4203 63.4799 49.4203C59.8721 49.4203 58.8916 53.1376 58.8916 54.2082V59.115C58.8916 60.7806 60.1525 60.7806 61.6585 60.7806V61.9403H53.4625V60.7806C54.5484 60.7806 56.2297 60.7806 56.2297 59.4125V53.0187C56.2297 50.5206 54.8984 49.4203 52.867 49.4203C49.2593 49.4203 48.2787 52.8403 48.2787 54.5057V59.115C48.2787 60.7806 49.6447 60.7806 51.1157 60.7806V61.9403H42.6396V60.7806C44.0405 60.7806 45.6168 60.7806 45.6168 59.4125V50.7586C45.6168 49.2122 44.1455 49.2122 42.6045 49.2122V48.0225C45.7919 48.0225 47.3329 47.5469 47.7533 47.5469C48.0684 47.5469 48.1037 47.7847 48.1037 48.2308V50.3125C48.1037 50.5503 48.1037 50.7586 48.2437 50.7586C48.6988 50.7586 49.5397 47.5469 53.8479 47.5469C55.5642 47.5469 56.6148 48.1713 57.1052 48.6175C58.5062 49.8664 58.2261 50.9964 58.5762 50.9964C58.9616 50.9964 60.2225 47.5469 64.3907 47.5469C67.508 47.5469 69.5045 48.9741 69.5045 53.0484V59.115C69.5045 60.7806 70.8354 60.7806 72.3417 60.7806V61.9403ZM36.0195 61.0481C38.4364 61.0481 40.1177 60.0667 41.3436 59.0852L42.1841 60.0072C40.5378 61.5536 38.156 62.3864 35.7044 62.3864C30.6604 62.3864 27.5081 59.2341 27.5081 54.8624C27.5081 50.7586 30.5204 47.5469 35.5641 47.5469C40.7832 47.5469 42.5345 50.8775 42.5345 54.9815H30.8008C30.8008 58.3419 32.7972 61.0481 36.0195 61.0481ZM118.422 25.7092C118.422 18.4844 120.523 11.8111 124.077 6.41701C107.938 1.86768 86.3848 1.58921 64.0803 6.66262C32.0497 13.9484 7.86972 30.1349 1.59855 46.5889C3.54184 43.4317 7.26382 41.1528 12.2372 41.1528C16.4401 41.1528 18.5419 42.729 19.5924 42.729C20.6783 42.729 21.2388 42.0154 21.4488 41.1528H22.9901C22.9201 42.3723 22.8851 43.5618 22.8851 44.781C22.8851 46.0004 22.9201 47.1899 22.9901 48.4091H21.3788C20.0478 44.8702 17.0706 42.5804 12.5873 42.5804C9.22493 42.5804 3.7608 44.4837 3.7608 51.6506C3.7608 57.0335 7.05315 60.9589 13.1828 60.9589C16.6155 60.9589 19.6274 59.71 19.6274 56.3196C19.6274 54.5057 18.7869 54.119 16.6155 54.119H15.6346V52.7806H26.3175V54.119C23.1302 54.119 22.7097 54.6246 22.7097 56.2304V62.3864H21.3088C21.1337 61.5239 20.9587 60.7508 19.9078 60.7508C18.8569 60.7508 17.1756 62.3864 12.4123 62.3864C5.27323 62.3864 0.511126 58.4639 0.113132 52.6803C-0.170623 55.4279 0.0790447 58.1531 0.919255 60.8152C7.39188 81.3162 46.1635 90.309 87.5195 80.9018C109.13 75.9862 127.17 67.0189 138.546 56.6515C126.875 52.4724 118.422 40.1993 118.422 25.7092Z" fill="white"/>
</g>
</g>
<g id="Group_6">
<g id="Group_7">
<path id="Vector_3" d="M35.3355 48.6817C32.0685 48.5803 30.9022 51.3134 30.9023 53.7214L38.8619 53.9683C39.3483 53.9834 39.4811 53.8371 39.4564 53.2643C39.369 51.2448 38.0119 48.7645 35.3355 48.6817Z" fill="white"/>
</g>
</g>
<g id="Group_8">
<g id="Group_9">
<path id="Vector_4" d="M147.338 52.9837L151.887 46.9518L155.056 51.5499C155.069 51.5692 155.084 51.588 155.099 51.6057L154.528 51.8021L153.493 52.0988L152.419 52.3611L151.314 52.5793L150.154 52.754L148.952 52.8802L147.718 52.9723L147.338 52.9837ZM145.522 52.9837L145.144 52.9723L143.908 52.8802L142.707 52.754L141.546 52.5793L140.436 52.3611L139.367 52.0988L138.332 51.8021L137.919 51.6602L140.991 46.9738L145.522 52.9837ZM146.43 51.8339L141.979 45.9308L146.425 43.5722L150.878 45.9352L146.43 51.8339ZM136.551 51.1442L136.387 51.0785L135.478 50.6663L134.597 50.2186L133.768 49.7336L132.968 49.2145L132.201 48.6651L131.481 48.0871L130.794 47.4757L130.136 46.8343L129.99 46.676L139.651 46.4077L136.586 51.0835C136.573 51.1036 136.562 51.1236 136.551 51.1442ZM156.431 51.095C156.415 51.0311 156.387 50.9682 156.346 50.9088L153.245 46.4093L162.869 46.6786L162.725 46.8343L162.066 47.4757L161.38 48.0871L160.654 48.6651L159.894 49.2145L159.093 49.7336L158.263 50.2186L157.382 50.6663L156.472 51.0785L156.431 51.095ZM162.532 45.3992L152.986 45.1319L154.841 40.9893L161.538 38.995L162.532 45.3992ZM130.234 45.3992L131.298 38.9926L138.022 40.9943L139.875 45.1314L130.234 45.3992ZM164.031 45.3447L163.108 39.397L166.289 41.1022C166.379 41.1507 166.477 41.1807 166.577 41.1935L166.339 41.6975L165.915 42.4886L165.47 43.2755L164.989 44.0324L164.469 44.7713L164.031 45.3447ZM128.75 45.2425L128.391 44.7713L127.872 44.0324L127.391 43.2755L126.939 42.4886L126.521 41.6975L126.282 41.1914C126.376 41.1776 126.469 41.1484 126.554 41.1022L129.72 39.4056L128.75 45.2425ZM151.54 44.7896L148.14 42.9855L152.996 41.5392L151.54 44.7896ZM141.319 44.7846L139.867 41.5439L144.71 42.9855L141.319 44.7846ZM146.425 42.1512L139.172 39.9918L134.777 30.1795L138.73 20.5937L146.524 13.1453L154.009 20.2986L158.084 30.1787L153.691 39.9871L146.425 42.1512ZM167.086 40.0285L163.426 38.0665L168.666 34.3559L168.597 34.7436L168.421 35.6567L168.203 36.555L167.969 37.448L167.706 38.3269L167.403 39.1869L167.086 40.0285ZM125.772 40.0207L125.452 39.1869L125.154 38.3269L124.892 37.448L124.651 36.555L124.439 35.6567L124.263 34.7436L124.198 34.37L129.417 38.0665L125.772 40.0207ZM137.326 39.4424L131.653 37.7533L134.01 32.0385L137.326 39.4424ZM155.536 39.4372L158.851 32.0377L161.206 37.7486L155.536 39.4372ZM130.35 37.0736L125.258 33.4679L131.835 27.1826L133.185 30.1974L130.35 37.0736ZM162.508 37.0639L159.675 30.1964L161.082 27.0566L167.704 33.3844L162.508 37.0639ZM123.999 32.7592L123.994 32.7039L123.959 32.1655L123.931 31.6119L123.925 31.0529V30.4845L123.948 29.902L123.976 29.3143L124.017 28.718L124.08 28.1152L124.154 27.5038L124.245 26.8913L124.354 26.265L124.48 25.6387L124.617 25.0072L124.777 24.371L124.955 23.7351L125.149 23.0895L125.355 22.4484L125.589 21.7983L125.842 21.1473L126.104 20.5061L126.39 19.8551L126.699 19.2053L127.024 18.5587L127.38 17.9131L127.751 17.2621L128.14 16.6261L128.558 15.9902L128.993 15.3542L129.559 14.5629L130.125 13.8008L130.68 13.0577L131.228 12.349L131.789 11.6541L132.332 10.9893L132.882 10.3531L133.419 9.72573L133.962 9.12942L134.5 8.5459L135.043 7.99783L135.575 7.45393L136.107 6.93898L136.645 6.44306L137.177 5.96252L137.709 5.49685L138.246 5.0502L138.772 4.62312L139.31 4.20985L139.847 3.80727L140.38 3.42295L140.917 3.05453L141.454 2.69497L141.998 2.35549L142.541 2.02462L143.084 1.70887L143.633 1.39833L144.183 1.10292L144.743 0.810629L145.298 0.534249L145.864 0.262301L146.43 0L146.996 0.262301L147.557 0.534249L148.117 0.810629L148.672 1.10292L149.227 1.39833L149.775 1.70887L150.319 2.02462L150.862 2.35549L151.406 2.69497L151.943 3.05453L152.475 3.42295L153.012 3.80727L153.551 4.20985L154.088 4.62312L154.614 5.0502L155.152 5.49685L155.678 5.96252L156.215 6.44306L156.754 6.93898L157.28 7.45393L157.817 7.99783L158.36 8.5459L158.897 9.12942L159.441 9.72573L159.98 10.3531L160.528 10.9893L161.072 11.6541L161.626 12.349L162.181 13.0577L162.736 13.8008L163.302 14.5629L163.868 15.3542L164.302 15.9902L164.714 16.6261L165.109 17.2621L165.481 17.9131L165.829 18.5587L166.161 19.2053L166.47 19.8551L166.756 20.5061L167.02 21.1473L167.271 21.7983L167.505 22.4484L167.711 23.0895L167.906 23.7351L168.082 24.371L168.243 25.0072L168.375 25.6387L168.506 26.265L168.615 26.8913L168.707 27.5038L168.775 28.1152L168.843 28.718L168.883 29.3143L168.912 29.902L168.935 30.4845V31.0529L168.93 31.6119L168.901 32.1655L168.869 32.5871L161.617 25.657L163.706 15.1279L163.302 14.5629L162.736 13.8008L162.419 13.3758L151.362 8.52191L154.761 5.27261C154.78 5.25462 154.798 5.23585 154.814 5.21629L154.614 5.0502L154.088 4.62312L153.738 4.35404C153.705 4.37646 153.673 4.40175 153.644 4.42965L150.348 7.57961L147.414 0.464632L146.996 0.262301L146.43 0L145.864 0.262301L145.447 0.462286L142.565 7.45185L139.284 4.31675C139.267 4.30059 139.249 4.2852 139.231 4.27086L138.772 4.62312L138.246 5.0502L138.143 5.13625C138.15 5.14407 138.158 5.15215 138.166 5.15971L141.631 8.4708L130.442 13.376L130.125 13.8008L129.559 14.5629L129.154 15.1292L131.273 25.8085L123.999 32.7592ZM133.952 28.3384L132.955 26.1122L136.115 23.0919L133.952 28.3384ZM158.909 28.3374L156.624 22.7964L159.962 25.9863L158.909 28.3374ZM132.547 24.5906L130.592 14.7386L141.539 9.93979L137.416 19.9377L132.547 24.5906ZM160.342 24.4393L155.323 19.6428L151.318 9.93171L162.268 14.7384L160.342 24.4393ZM140.03 17.4396L143.136 9.9085L145.523 12.1899L140.03 17.4396ZM152.709 17.1447L147.523 12.1899L149.777 10.036L152.709 17.1447ZM146.523 11.2343L143.701 8.53755L146.43 1.92058L149.212 8.66531L146.523 11.2343Z" fill="white"/>
</g>
</g>
</g>
</svg>
